<svg width="24" height="25" viewBox="0 0 24 25" fill="none" xmlns="http://www.w3.org/2000/svg">
<path fill-rule="evenodd" clip-rule="evenodd" d="M12.0259 0C8.86121 0 5.97817 1.0362 4.27217 1.8828C4.11803 1.95919 3.97417 2.03373 3.84059 2.10643C3.57575 2.24949 3.35015 2.38284 3.17079 2.50021L5.11151 5.33239L6.02511 5.69283C9.59546 7.4784 14.3835 7.4784 17.9545 5.69283L18.9914 5.15946L20.8264 2.50021C20.4458 2.25512 20.0507 2.03317 19.643 1.83557C17.9454 0.997999 15.131 0 12.0266 0M7.51322 3.20582C6.82615 3.07765 6.14744 2.90882 5.48073 2.70022C7.07884 1.99669 9.46024 1.2501 12.0266 1.2501C13.8041 1.2501 15.4848 1.60847 16.8749 2.06267C15.2459 2.28977 13.5077 2.67522 11.8514 3.14957C10.5483 3.52321 9.02515 3.48293 7.51322 3.20582ZM18.6951 6.72278L18.5227 6.8089C14.5951 8.77295 9.38527 8.77295 5.45761 6.8089L5.29437 6.72695C-0.606935 13.1448 -5.11191 25 12.0259 25C29.1637 25 24.5494 12.9247 18.6951 6.72278ZM11.298 12.501C10.9263 12.501 10.5699 12.6474 10.3071 12.9079C10.0444 13.1684 9.89672 13.5217 9.89672 13.89C9.89672 14.2584 10.0444 14.6117 10.3071 14.8722C10.5699 15.1327 10.9263 15.2791 11.298 15.2791V12.501ZM12.6992 11.112V10.4175H11.298V11.112C10.5547 11.112 9.84188 11.4047 9.31631 11.9257C8.79075 12.4467 8.49549 13.1533 8.49549 13.89C8.49549 14.6268 8.79075 15.3334 9.31631 15.8544C9.84188 16.3754 10.5547 16.6681 11.298 16.6681V19.4461C10.6884 19.4461 10.1693 19.0606 9.97589 18.5203C9.9472 18.4319 9.90092 18.3501 9.83978 18.2797C9.77864 18.2094 9.70389 18.1519 9.61995 18.1107C9.53601 18.0694 9.44458 18.0453 9.35107 18.0397C9.25756 18.0342 9.16387 18.0472 9.07554 18.0782C8.98721 18.1091 8.90604 18.1573 8.83682 18.2198C8.76761 18.2824 8.71175 18.3581 8.67257 18.4425C8.63338 18.5268 8.61165 18.6181 8.60868 18.7109C8.6057 18.8037 8.62153 18.8962 8.65523 18.9828C8.8484 19.5246 9.20628 19.9936 9.67958 20.3254C10.1529 20.6571 10.7183 20.8352 11.298 20.8351V21.5296H12.6992V20.8351C13.4425 20.8351 14.1553 20.5424 14.6808 20.0214C15.2064 19.5004 15.5017 18.7938 15.5017 18.0571C15.5017 17.3203 15.2064 16.6137 14.6808 16.0927C14.1553 15.5717 13.4425 15.2791 12.6992 15.2791V12.501C13.3087 12.501 13.8279 12.8865 14.0213 13.4268C14.0499 13.5152 14.0962 13.597 14.1574 13.6674C14.2185 13.7377 14.2933 13.7952 14.3772 13.8364C14.4611 13.8777 14.5526 13.9018 14.6461 13.9074C14.7396 13.9129 14.8333 13.8999 14.9216 13.869C15.0099 13.838 15.0911 13.7898 15.1603 13.7273C15.2295 13.6647 15.2854 13.589 15.3246 13.5046C15.3638 13.4203 15.3855 13.329 15.3885 13.2362C15.3915 13.1434 15.3756 13.0509 15.3419 12.9643C15.1488 12.4225 14.7909 11.9535 14.3176 11.6218C13.8443 11.29 13.2788 11.1119 12.6992 11.112ZM12.6992 16.6681V19.4461C13.0708 19.4461 13.4272 19.2997 13.69 19.0392C13.9528 18.7787 14.1004 18.4254 14.1004 18.0571C14.1004 17.6887 13.9528 17.3354 13.69 17.0749C13.4272 16.8144 13.0708 16.6681 12.6992 16.6681Z" fill="#1A120B"/>
</svg>
