<?xml version="1.0" encoding="UTF-8"?>
<svg version="1.1" xmlns="http://www.w3.org/2000/svg" width="500" height="500">
<path d="M0 0 C0.9178125 0.69351563 1.835625 1.38703125 2.78125 2.1015625 C14.35272992 11.18857762 25.43869571 22.0075115 34 34 C34.43344727 34.60585937 34.86689453 35.21171875 35.31347656 35.8359375 C53.86119799 62.02095599 65.80947151 90.28713691 71 122 C71.19480957 123.1753833 71.19480957 123.1753833 71.39355469 124.37451172 C78.63197681 170.36991953 67.57666646 213.24107577 41 251 C36.40703382 257.30142246 31.66060243 263.48352909 26.8515625 269.62109375 C25.50212951 271.35485892 24.16525866 273.09842318 22.8359375 274.84765625 C18.01932564 281.17828455 13.07823443 287.37683039 8 293.5 C2.15914348 300.5451164 -3.46515907 307.71245944 -9 315 C-10.58292985 317.04197951 -12.16627353 319.08363828 -13.75 321.125 C-24.29113325 334.79300734 -34.38955484 348.80970555 -44.44726562 362.83544922 C-45.45992687 364.24712447 -46.47417579 365.65766256 -47.49023438 367.06689453 C-55.7377289 378.5159365 -63.50403013 390.25187763 -71.14160156 402.11523438 C-72.88769978 404.82567796 -74.6425222 407.53028595 -76.3984375 410.234375 C-84.50310602 422.78414885 -92.1618127 435.57634554 -99.69238281 448.47631836 C-100.088694 449.15140442 -100.48500519 449.82649048 -100.89332581 450.52203369 C-101.63965288 451.79341374 -102.38233638 453.0669423 -103.12071228 454.34295654 C-104.82392505 457.23780222 -106.45641226 459.78161077 -109 462 C-115.51778041 453.14263911 -120.98249025 443.74003046 -126.51245117 434.25415039 C-131.94287848 424.95450208 -137.61523967 415.89878078 -143.6590271 406.98599243 C-146.08713226 403.38994774 -148.47789324 399.76908937 -150.875 396.15234375 C-151.89038059 394.62418653 -152.90600708 393.09619268 -153.921875 391.56835938 C-155.46286286 389.25075867 -157.00316729 386.93272248 -158.54101562 384.61303711 C-165.17840549 374.60318692 -171.95975131 364.7304951 -179 355 C-180.11057913 353.44356682 -181.22011795 351.88639025 -182.328125 350.328125 C-189.42748472 340.3996882 -196.79030644 330.70859938 -204.3371582 321.11669922 C-208.79195103 315.44601154 -213.20088811 309.74265895 -217.5625 304 C-221.6220564 298.68295951 -225.84934245 293.5192127 -230.125 288.375 C-234.64890441 282.92631289 -239.00071161 277.42854948 -243.09375 271.64453125 C-245.23364369 268.67586725 -247.48674479 265.81312331 -249.75 262.9375 C-281.18905495 222.31099799 -295.59265234 176.68122713 -289.31640625 125.3359375 C-288.48283186 119.82388668 -287.33515803 114.41074316 -286 109 C-285.78569336 108.11747559 -285.57138672 107.23495117 -285.35058594 106.32568359 C-276.89889298 72.45124902 -260.81929563 43.44670092 -237 18 C-236.54560547 17.50628906 -236.09121094 17.01257812 -235.62304688 16.50390625 C-213.9611224 -6.87814413 -185.93165912 -21.25071497 -156 -31 C-154.99324219 -31.33 -153.98648438 -31.66 -152.94921875 -32 C-150.31353841 -32.78701497 -147.68862709 -33.41837863 -145 -34 C-143.79472656 -34.27714844 -142.58945313 -34.55429687 -141.34765625 -34.83984375 C-91.90227904 -44.99046179 -39.60798061 -30.2942228 0 0 Z " fill="#FE0000" transform="translate(358,37)"/>
<path d="M0 0 C0.94470657 -0.00960754 1.88941315 -0.01921509 2.86274719 -0.02911377 C4.39864754 -0.03548859 4.39864754 -0.03548859 5.96557617 -0.04199219 C7.54165901 -0.0505423 7.54165901 -0.0505423 9.14958191 -0.05926514 C11.37640371 -0.06872371 13.60323956 -0.07525251 15.83007812 -0.07910156 C19.23421744 -0.08879789 22.63775077 -0.11980989 26.04174805 -0.15136719 C28.20385383 -0.15789805 30.36596394 -0.16314819 32.52807617 -0.16699219 C34.05486748 -0.18551239 34.05486748 -0.18551239 35.61250305 -0.20440674 C41.94463259 -0.18449049 45.59719515 0.33767386 50.2265625 4.92578125 C51.90207468 7.99705042 51.88215849 10.4363574 51.95776367 13.92675781 C51.98475845 14.92078362 51.98475845 14.92078362 52.01229858 15.93489075 C52.06697752 18.09357827 52.10067611 20.25201238 52.13354492 22.41113281 C52.16634641 23.89609925 52.20012553 25.3810444 52.23486328 26.8659668 C52.5068149 39.29590475 52.56351774 51.72889387 52.44604492 64.16113281 C53.33163086 63.62746094 54.2172168 63.09378906 55.12963867 62.54394531 C62.96807237 57.82718229 70.83035297 53.15350134 78.72119141 48.52490234 C79.39609619 48.12899902 80.07100098 47.7330957 80.76635742 47.32519531 C81.40283203 46.95378418 82.03930664 46.58237305 82.69506836 46.19970703 C84.22113306 45.29453703 85.72273185 44.34836874 87.21948242 43.39550781 C90.44081816 41.60964449 92.8246602 41.77312731 96.44604492 42.16113281 C99.98474432 43.81252587 101.25674645 44.87718511 103.44604492 48.16113281 C103.6730957 50.88842773 103.6730957 50.88842773 103.64135742 54.14160156 C103.63491211 55.30498047 103.6284668 56.46835938 103.62182617 57.66699219 C103.59668945 59.4894043 103.59668945 59.4894043 103.57104492 61.34863281 C103.56202148 62.57517578 103.55299805 63.80171875 103.54370117 65.06542969 C103.52010509 68.09752577 103.48718333 71.12923219 103.44604492 74.16113281 C103.98617722 73.80448044 104.52630951 73.44782806 105.08280945 73.08036804 C110.71111916 69.3642573 116.3403888 65.64960414 121.97021484 61.93579102 C124.07039584 60.55009623 126.17033285 59.16403158 128.27001953 57.77758789 C131.29029096 55.78336562 134.31144096 53.79048063 137.33276367 51.79785156 C138.26940353 51.17899582 139.2060434 50.56014008 140.17106628 49.92253113 C141.05160172 49.34215591 141.93213715 48.7617807 142.83935547 48.16381836 C143.60990768 47.65529831 144.3804599 47.14677826 145.17436218 46.62284851 C152.82929959 41.69727418 152.82929959 41.69727418 156.94604492 42.16113281 C157.67823242 42.22300781 158.41041992 42.28488281 159.16479492 42.34863281 C162.5393516 43.55052971 164.66628329 45.08180464 166.44604492 48.16113281 C167.21317017 52.37959414 167.12861447 56.56489837 167.09301758 60.8425293 C167.10177917 62.13084656 167.11054077 63.41916382 167.11956787 64.746521 C167.14233077 68.27361481 167.13353753 71.79997604 167.11767244 75.3270824 C167.10499477 79.02252315 167.11675897 82.71790206 167.12460327 86.41334534 C167.13369561 92.61983474 167.12172431 98.82602651 167.09790039 105.0324707 C167.07070152 112.20076036 167.07949531 119.36833866 167.10703242 126.53661102 C167.12974893 132.69732596 167.13291091 138.85782718 167.11983907 145.01857048 C167.11205683 148.6953392 167.11096844 152.37177398 167.12752151 156.04852104 C167.14469543 160.14955379 167.12086963 164.24936777 167.09301758 168.3503418 C167.10313873 169.56456314 167.11325989 170.77878448 167.12368774 172.02980042 C167.0082618 181.1998148 167.0082618 181.1998148 164.03060913 184.89930725 C160.0126033 188.4155783 157.89373427 188.29200694 152.59550476 188.31503296 C151.52630074 188.32160634 151.52630074 188.32160634 150.43549663 188.32831252 C148.03495738 188.3417209 145.63445485 188.34788391 143.23388672 188.35400391 C141.5175866 188.36190322 139.80128815 188.37017206 138.08499146 188.37878418 C132.43843171 188.40502223 126.79186447 188.42031273 121.14526367 188.43457031 C119.20321968 188.4399291 117.26117574 188.4453066 115.31913185 188.45070267 C107.24254213 188.47233324 99.16595443 188.4910711 91.08934307 188.50232506 C79.50489137 188.51857174 67.9207747 188.55176489 56.33644933 188.60872591 C48.19627074 188.64739076 40.0561819 188.6669536 31.91591388 188.67224562 C27.05140752 188.67590359 22.18725834 188.68797204 17.32285118 188.72034836 C12.74681817 188.75036859 8.17135958 188.75676257 3.59524918 188.7449646 C1.91542866 188.74474336 0.23558196 188.75308992 -1.44414711 188.77061844 C-3.73761405 188.79324941 -6.02898725 188.78504601 -8.32246399 188.76913452 C-9.60576756 188.77244467 -10.88907114 188.77575481 -12.2112627 188.77916527 C-16.42710793 187.99969504 -17.88284467 186.43526605 -20.55395508 183.16113281 C-24.18765407 175.89373483 -21.03826255 163.74055273 -20.24145508 155.97363281 C-19.95887021 153.09001352 -19.68333699 150.2057439 -19.40942383 147.32128906 C-19.33815277 146.5713266 -19.26688171 145.82136414 -19.19345093 145.04867554 C-16.76402773 119.27374046 -15.22670454 93.45281445 -13.92895508 67.59863281 C-13.86319275 66.29943909 -13.79743042 65.00024536 -13.72967529 63.66168213 C-12.8243597 45.65886254 -12.8243597 45.65886254 -12.31958008 27.64160156 C-12.30516876 26.89484665 -12.29075745 26.14809174 -12.27590942 25.37870789 C-12.21568045 22.13762734 -12.18077135 18.90064141 -12.19604492 15.65893555 C-12.08962819 7.15136672 -12.08962819 7.15136672 -9.13989258 3.46582031 C-5.79954183 0.48877055 -4.34731944 0.03562623 0 0 Z " fill="#FEFCFC" transform="translate(177.553955078125,66.8388671875)"/>
<path d="M0 0 C6.93 0 13.86 0 21 0 C21.26772705 5.14399832 21.53424028 10.2880224 21.79681396 15.43228149 C21.89088404 17.27456532 21.98532797 19.11683009 22.08013916 20.95907593 C22.59346373 30.97284855 23.05881614 40.97704877 23.29492188 51.00146484 C23.68293681 67.04493595 25.19236448 82.92323378 26.74688721 98.88781738 C26.83428162 99.7859314 26.92167603 100.68404541 27.01171875 101.609375 C27.0983075 102.49878784 27.18489624 103.38820068 27.27410889 104.30456543 C28.04471185 112.30014824 28.68592886 120.29967277 29.25 128.3125 C29.32984131 129.43148682 29.40968262 130.55047363 29.49194336 131.70336914 C29.81899648 136.50027423 30 141.18164385 30 146 C17.13 146 4.26 146 -9 146 C-8.40120199 133.28837377 -7.68697026 120.59915815 -6.75268555 107.90795898 C-6.56179449 105.30287189 -6.37743445 102.69737342 -6.19335938 100.09179688 C-5.63158103 92.31617083 -4.98327765 84.58945154 -3.96875 76.859375 C-2.48960187 65.27604257 -2.3170881 53.59722253 -1.9375 41.9375 C-1.783105 37.40483514 -1.6248065 32.87231529 -1.46484375 28.33984375 C-1.42741058 27.26431244 -1.38997742 26.18878113 -1.35140991 25.08065796 C-1.05025194 16.7065572 -0.57845137 8.35939014 0 0 Z " fill="#FE0303" transform="translate(187,88)"/>
<path d="M0 0 C4.45239996 0.36495082 6.382143 1.52034895 9.8125 4.3125 C13.45801803 9.78077704 12.70806404 17.89750094 11.8125 24.3125 C10.51912973 27.80052612 9.15798286 29.64965645 5.8125 31.3125 C2.26573238 32.19494936 -0.70337532 32.48859914 -4.1875 31.3125 C-7.93410274 27.99392945 -9.45038887 25.75329681 -9.8515625 20.74609375 C-9.86472743 19.0807303 -9.85113033 17.4149674 -9.8125 15.75 C-9.83183594 14.91275391 -9.85117187 14.07550781 -9.87109375 13.21289062 C-9.83540973 8.70599865 -9.65380699 6.88251249 -6.7109375 3.28515625 C-5.87820313 2.63417969 -5.04546875 1.98320312 -4.1875 1.3125 C-3.1875 0.3125 -3.1875 0.3125 0 0 Z " fill="#FF0707" transform="translate(301.1875,181.6875)"/>
<path d="M0 0 C4.2241065 1.82404599 6.02984206 3.88715616 8 8 C8.28892087 10.76457615 8.42072 13.24663984 8.375 16 C8.38660156 16.69867188 8.39820313 17.39734375 8.41015625 18.1171875 C8.38490923 22.5774947 7.8307791 25.51596419 5 29 C2.25126686 30.84373102 -0.15262042 31.36336723 -3.4375 31.5 C-4.54931641 31.57734375 -4.54931641 31.57734375 -5.68359375 31.65625 C-8.61886481 30.82467236 -10.16682611 29.31817184 -11.9987793 26.91210938 C-13.91357779 23.25526915 -13.75986882 19.54636117 -13.6875 15.5 C-13.71521484 14.67113281 -13.74292969 13.84226563 -13.77148438 12.98828125 C-13.75363932 8.49846542 -13.32813194 5.7661045 -10.1796875 2.44140625 C-6.92117334 -0.53104727 -4.37435271 -0.71580317 0 0 Z " fill="#FF0808" transform="translate(263,182)"/>
<path d="M0 0 C0 0.33 0 0.66 0 1 C-1.546875 1.3403125 -1.546875 1.3403125 -3.125 1.6875 C-7.34408258 2.86471856 -9.81536784 5.04838971 -13 8 C-10.64175733 0.72875178 -7.4631798 -0.43056807 0 0 Z " fill="#FF3737" transform="translate(305,182)"/>
</svg>
