<svg width="137" height="137" viewBox="0 0 137 137" fill="none" xmlns="http://www.w3.org/2000/svg">
<path d="M110.75 89.625H131.875M131.875 131.875H47.375C40.8122 131.875 37.5308 131.875 34.9465 130.805C33.2366 130.097 31.683 129.059 30.3745 127.751C29.0659 126.442 28.0281 124.888 27.3203 123.179C26.25 120.594 26.25 117.313 26.25 110.75C26.25 104.187 26.25 100.906 27.3203 98.3215C28.0281 96.6116 29.0659 95.058 30.3745 93.7495C31.683 92.4409 33.2366 91.4031 34.9465 90.6953C37.5308 89.625 40.8122 89.625 47.375 89.625H61.4583H26.25C19.6872 89.625 16.4058 89.625 13.8215 88.5547C12.1116 87.8469 10.558 86.8091 9.24948 85.5005C7.94094 84.192 6.90312 82.6384 6.19534 80.9285C5.12501 78.3443 5.125 75.0628 5.125 68.5C5.125 61.9372 5.12501 58.6557 6.19534 56.0715C6.90312 54.3616 7.94094 52.808 9.24948 51.4995C10.558 50.1909 12.1116 49.1531 13.8215 48.4453C16.4058 47.375 19.6872 47.375 26.25 47.375H131.875H54.4167C47.8538 47.375 44.5724 47.375 41.9881 46.3047C40.2783 45.5969 38.7247 44.5591 37.4161 43.2505C36.1076 41.942 35.0698 40.3884 34.362 38.6785C33.2917 36.0942 33.2917 32.8128 33.2917 26.25C33.2917 19.6872 33.2917 16.4058 34.362 13.8215C35.0698 12.1116 36.1076 10.558 37.4161 9.24947C38.7247 7.94093 40.2783 6.90311 41.9881 6.19533C44.5724 5.125 47.8538 5.125 54.4167 5.125H131.875" stroke="#74512D" stroke-width="10" stroke-linecap="round" stroke-linejoin="round"/>
<path d="M61.4585 47.375V90.9629C61.4585 98.8144 61.4585 102.737 63.7541 103.568C66.0567 104.413 68.6551 101.427 73.8448 95.4696L77.2389 91.5826C79.7246 88.7307 80.9639 87.3083 82.5835 87.3083C84.2031 87.3083 85.4424 88.7307 87.9352 91.5826L91.3152 95.4696C96.5119 101.427 99.1103 104.413 101.406 103.568C103.708 102.737 103.708 98.8144 103.708 90.9629V47.375" stroke="#74512D" stroke-width="10" stroke-linecap="round" stroke-linejoin="round"/>
</svg>
