<svg width="76" height="76" viewBox="0 0 76 76" fill="none" xmlns="http://www.w3.org/2000/svg">
<path d="M25.3333 53.8333C16.8783 53.8333 0 58.0766 0 66.4999V75.9999H50.6667V66.4999C50.6667 58.0766 33.7883 53.8333 25.3333 53.8333Z" fill="white"/>
<path d="M25.3332 50.6667C32.3288 50.6667 37.9998 44.9956 37.9998 38C37.9998 31.0044 32.3288 25.3334 25.3332 25.3334C18.3376 25.3334 12.6665 31.0044 12.6665 38C12.6665 44.9956 18.3376 50.6667 25.3332 50.6667Z" fill="white"/>
<path d="M63.3332 19C65.0821 19 66.4998 17.5822 66.4998 15.8333C66.4998 14.0844 65.0821 12.6666 63.3332 12.6666C61.5843 12.6666 60.1665 14.0844 60.1665 15.8333C60.1665 17.5822 61.5843 19 63.3332 19Z" fill="white"/>
<path d="M68.0833 12.6667C68.9578 12.6667 69.6667 11.9578 69.6667 11.0833C69.6667 10.2089 68.9578 9.5 68.0833 9.5C67.2089 9.5 66.5 10.2089 66.5 11.0833C66.5 11.9578 67.2089 12.6667 68.0833 12.6667Z" fill="white"/>
<path d="M64.9168 6.33329C65.7913 6.33329 66.5002 5.62441 66.5002 4.74996C66.5002 3.87551 65.7913 3.16663 64.9168 3.16663C64.0424 3.16663 63.3335 3.87551 63.3335 4.74996C63.3335 5.62441 64.0424 6.33329 64.9168 6.33329Z" fill="white"/>
<path d="M50.6665 22.1666V25.3333H53.8332L53.8427 57.0981C53.8332 62.4213 56.9998 66.5 61.7498 66.5C66.4998 66.5 69.6665 62.6778 69.6665 57V25.3333H72.8332V22.1666H50.6665ZM66.4998 47.5L64.7107 48.8426C63.74 49.531 62.5755 49.8925 61.3857 49.875H60.1665V47.5H56.9998V41.1666H60.1665V38H56.9998V31.6666H60.1665V28.5H56.9998V25.3333H66.4998V47.5Z" fill="white"/>
</svg>
