<svg width="70" height="65" viewBox="0 0 70 65" fill="none" xmlns="http://www.w3.org/2000/svg">
<path d="M66.7184 21.9536C66.3123 21.9553 65.9111 21.8633 65.5456 21.6846L34.7305 5.81126L3.91542 21.577C3.25793 21.8909 2.5038 21.9284 1.81892 21.6812C1.13405 21.434 0.57453 20.9223 0.26346 20.2587C-0.0476104 19.5951 -0.0847529 18.834 0.160202 18.1427C0.405158 17.4515 0.912145 16.8868 1.56963 16.5728L34.7305 0L67.8913 16.5728C68.5903 16.7377 69.1969 17.1737 69.5796 17.7866C69.9623 18.3996 70.0905 19.14 69.9362 19.8475C69.782 20.5551 69.3578 21.1728 68.7556 21.567C68.1533 21.9612 67.4214 22.1001 66.7184 21.9536ZM21.4022 48.8576H5.40819V65H21.4022V48.8576ZM42.7275 48.8576H26.7335V65H42.7275V48.8576ZM64.0528 48.8576H48.0588V65H64.0528V48.8576ZM53.3901 27.3344H37.3961V43.4768H53.3901V27.3344ZM32.0648 27.3344H16.0708V43.4768H32.0648V27.3344Z" fill="white"/>
</svg>
