<svg width="71" height="67" viewBox="0 0 71 67" fill="none" xmlns="http://www.w3.org/2000/svg">
<path d="M33.1997 6.22348C27.8673 6.22379 22.6546 7.80454 18.2201 10.766C13.7857 13.7275 10.3285 17.9368 8.28518 22.8623C6.24192 27.7877 5.7043 33.2082 6.74025 38.439C7.7762 43.6698 10.3392 48.4763 14.1056 52.2511C14.6889 52.8356 15.0162 53.6278 15.0154 54.4536C15.0146 55.2793 14.6859 56.0709 14.1014 56.6543C13.517 57.2376 12.7247 57.5649 11.899 57.5641C11.0732 57.5634 10.2816 57.2346 9.69827 56.6501C5.93038 52.874 3.1279 48.2454 1.52813 43.1565C-0.0716529 38.0676 -0.42162 32.6681 0.507856 27.4152C1.43733 22.1624 3.61888 17.2108 6.86779 12.9799C10.1167 8.74889 14.3373 5.36309 19.1722 3.10914C24.0071 0.855199 29.3139 -0.200515 34.6433 0.0313911C39.9727 0.263297 45.1678 1.776 49.7886 4.4414C54.4095 7.1068 58.32 10.8464 61.1891 15.3436C64.0582 19.8408 65.8014 24.9631 66.2711 30.2769C64.5389 27.767 61.9458 25.9802 58.9837 25.2554C57.2853 19.7433 53.8648 14.9208 49.2243 11.4955C44.5838 8.07014 38.9675 6.22243 33.1997 6.22348ZM52.4433 25.4214C50.6337 20.9614 47.3305 17.2689 43.0989 14.9755C38.8672 12.6822 33.9702 11.9306 29.2456 12.8493C24.521 13.7681 20.2625 16.3001 17.1986 20.0121C14.1348 23.7241 12.4561 28.3854 12.4497 33.1985C12.4497 38.913 14.7654 44.0964 18.5004 47.848C19.0838 48.433 19.8756 48.7623 20.7017 48.7634C21.5279 48.7646 22.3207 48.4375 22.9056 47.8542C23.4906 47.2709 23.8199 46.479 23.8211 45.6529C23.8223 44.8267 23.4952 44.034 22.9119 43.449C21.3623 41.893 20.1856 40.006 19.4704 37.9298C18.7552 35.8535 18.5201 33.6421 18.7828 31.4619C19.0454 29.2817 19.799 27.1895 20.9868 25.3425C22.1746 23.4955 23.7658 21.9419 25.6406 20.7985C27.5154 19.6551 29.625 18.9517 31.8109 18.7411C33.9967 18.5306 36.2019 18.8184 38.2605 19.5829C40.319 20.3475 42.1775 21.5688 43.696 23.1551C45.2145 24.7414 46.3536 26.6514 47.0275 28.7414C48.5153 27.185 50.3813 26.0411 52.4433 25.4214ZM24.8997 33.1985C24.8997 30.9972 25.7742 28.886 27.3307 27.3295C28.8873 25.7729 30.9984 24.8985 33.1997 24.8985C35.401 24.8985 37.5122 25.7729 39.0687 27.3295C40.6253 28.886 41.4997 30.9972 41.4997 33.1985C41.4997 35.3998 40.6253 37.5109 39.0687 39.0675C37.5122 40.624 35.401 41.4985 33.1997 41.4985C30.9984 41.4985 28.8873 40.624 27.3307 39.0675C25.7742 37.5109 24.8997 35.3998 24.8997 33.1985ZM64.3247 37.3485C64.3247 39.5498 63.4503 41.6609 61.8937 43.2175C60.3372 44.774 58.226 45.6485 56.0247 45.6485C53.8234 45.6485 51.7123 44.774 50.1557 43.2175C48.5992 41.6609 47.7247 39.5498 47.7247 37.3485C47.7247 35.1472 48.5992 33.036 50.1557 31.4795C51.7123 29.9229 53.8234 29.0485 56.0247 29.0485C58.226 29.0485 60.3372 29.9229 61.8937 31.4795C63.4503 33.036 64.3247 35.1472 64.3247 37.3485ZM70.5497 56.0235C70.5497 61.1902 66.3997 66.3985 56.0247 66.3985C45.6497 66.3985 41.4997 61.211 41.4997 56.0235C41.4997 54.3725 42.1556 52.7892 43.323 51.6217C44.4904 50.4543 46.0738 49.7985 47.7247 49.7985H64.3247C65.9757 49.7985 67.559 50.4543 68.7265 51.6217C69.8939 52.7892 70.5497 54.3725 70.5497 56.0235Z" fill="white"/>
</svg>
