<svg width="72" height="57" viewBox="0 0 72 57" fill="none" xmlns="http://www.w3.org/2000/svg">
<path d="M12.4851 0.000181849C12.3626 0.000181849 12.2247 0.0155012 12.1021 0.0338842C7.35472 0.847331 2.592 11.3823 1.01106 15.1968H35.7549L37.5779 11.5355C35.6783 8.47167 32.1702 3.82078 28.6468 4.01686C26.3336 4.13942 21.9064 9.22231 21.9064 9.22231C21.9064 9.22231 16.4834 -0.0473075 12.4851 0.000181849ZM42.3728 8.14997L37.4706 17.9542H25.2613L19.0264 32.5074C22.3966 33.0129 25.3685 34.7593 27.4519 37.2564H40.8715C41.6068 36.3678 42.4494 35.5866 43.3838 34.9125L47.7651 15.1968H55.2562L57.7532 8.14997H42.3728ZM0 17.9542V30.2095L2.07881 30.7457L7.56306 17.9542H0ZM10.5564 17.9542L4.77038 31.4504L8.68596 32.4768L14.9055 17.9542H10.5564ZM17.9081 17.9542L11.3791 33.1815L11.9459 33.3346C13.2357 32.8138 14.6298 32.4768 16.0851 32.3849L22.2587 17.9542H17.9081ZM49.9711 17.9542L46.5855 33.1968C48.0562 32.6606 49.6647 32.3542 51.3191 32.3542C57.4928 32.3542 62.7472 36.5057 64.4017 42.1585H72V29.8266L64.8766 27.4521L62.5021 17.9542H57.1864H49.9711ZM52.6979 20.0989H59.7447L61.6596 27.7585H50.783L52.4374 21.1406L52.6979 20.0989ZM17.0043 35.1117C10.9808 35.1117 6.12766 39.9678 6.12766 45.9883C6.12766 52.0087 10.9808 56.8649 17.0043 56.8649C23.0247 56.8649 27.8809 52.0087 27.8809 45.9883C27.8809 39.9678 23.0247 35.1117 17.0043 35.1117ZM51.3191 35.1117C45.2987 35.1117 40.4426 39.9678 40.4426 45.9883C40.4426 52.0087 45.2987 56.8649 51.3191 56.8649C57.3396 56.8649 62.1957 52.0087 62.1957 45.9883C62.1957 39.9678 57.3396 35.1117 51.3191 35.1117ZM2.20289 40.0138L0.303319 49.5117H3.83438C3.5326 48.3934 3.37021 47.1985 3.37021 45.9883C3.37021 43.8436 3.86809 41.8215 4.75506 40.0138H2.20289ZM29.2596 40.0138C30.1328 41.8215 30.6383 43.8436 30.6383 45.9883C30.6383 47.1985 30.4698 48.3934 30.1787 49.5117H38.1447C37.8536 48.3934 37.6851 47.1985 37.6851 45.9883C37.6851 43.8436 38.1906 41.8215 39.0638 40.0138H29.2596ZM17.0043 41.0861C18.3044 41.0861 19.5513 41.6026 20.4706 42.5219C21.3899 43.4413 21.9064 44.6881 21.9064 45.9883C21.9064 47.2884 21.3899 48.5353 20.4706 49.4546C19.5513 50.3739 18.3044 50.8904 17.0043 50.8904C15.7041 50.8904 14.4573 50.3739 13.5379 49.4546C12.6186 48.5353 12.1021 47.2884 12.1021 45.9883C12.1021 44.6881 12.6186 43.4413 13.5379 42.5219C14.4573 41.6026 15.7041 41.0861 17.0043 41.0861ZM51.3191 41.0861C52.6193 41.0861 53.8661 41.6026 54.7855 42.5219C55.7048 43.4413 56.2213 44.6881 56.2213 45.9883C56.2213 47.2884 55.7048 48.5353 54.7855 49.4546C53.8661 50.3739 52.6193 50.8904 51.3191 50.8904C50.019 50.8904 48.7722 50.3739 47.8528 49.4546C46.9335 48.5353 46.417 47.2884 46.417 45.9883C46.417 44.6881 46.9335 43.4413 47.8528 42.5219C48.7722 41.6026 50.019 41.0861 51.3191 41.0861ZM64.9072 44.9159C64.9379 45.2683 64.9532 45.6206 64.9532 45.9883C64.9532 47.6274 64.6621 49.19 64.126 50.6606L72 47.5049V44.9159H64.9072Z" fill="white"/>
</svg>
