<svg width="66" height="66" viewBox="0 0 66 66" fill="none" xmlns="http://www.w3.org/2000/svg">
<path d="M34.4177 61.1017L34.3146 61.0849C34.329 61.0961 34.346 61.1034 34.364 61.1064C34.382 61.1093 34.4005 61.1077 34.4177 61.1017ZM57.8658 24.2061C57.8364 24.0506 57.7558 23.9093 57.637 23.8048C57.5181 23.7002 57.3677 23.6384 57.2097 23.629C57.0517 23.6197 56.8951 23.6634 56.7648 23.7533C56.6344 23.8431 56.5379 23.9739 56.4903 24.1249C56.4448 24.2683 56.3551 24.3935 56.234 24.4827C56.1128 24.5718 55.9666 24.6203 55.8162 24.6212H53.822C53.693 24.6212 53.5664 24.586 53.4559 24.5193L50.571 22.7894C50.4605 22.7228 50.3339 22.6876 50.2049 22.6876H45.59C45.4496 22.6876 45.3123 22.7293 45.1956 22.8075L39.5044 26.6012C39.406 26.6667 39.3255 26.7557 39.2701 26.8601C39.2148 26.9645 39.1863 27.0811 39.1873 27.1993V32.5799C39.1871 32.7088 39.2221 32.8354 39.2884 32.946C39.3547 33.0566 39.4498 33.147 39.5637 33.2076L47.026 37.1908C47.1382 37.2511 47.2322 37.3403 47.2983 37.4491C47.3645 37.5578 47.4004 37.6823 47.4025 37.8096L47.4373 40.8376C47.4392 40.9629 47.4743 41.0856 47.5388 41.1931C47.6033 41.3006 47.695 41.3891 47.8046 41.4499L50.803 43.1089C50.9141 43.1706 51.0067 43.2609 51.0713 43.3703C51.1359 43.4798 51.1701 43.6045 51.1704 43.7315V49.9964C51.1704 50.1333 51.2099 50.2673 51.2842 50.3823C51.3585 50.4973 51.4644 50.5884 51.5891 50.6448C51.7139 50.7011 51.8523 50.7203 51.9877 50.6999C52.1231 50.6796 52.2497 50.6206 52.3525 50.53C53.5616 49.4653 55.2954 47.9107 55.5261 47.5549C55.9077 46.9645 56.2656 46.3599 56.5999 45.7412C57.2922 44.4591 57.8785 43.1227 58.353 41.7451C59.9876 37.0129 58.6959 28.5064 57.8658 24.2061ZM36.9185 39.0329L29.0127 33.1032C28.9234 33.0363 28.8149 33.0001 28.7033 33.0001H24.9521C24.888 33.0002 24.8244 32.9876 24.7651 32.963C24.7058 32.9384 24.652 32.9024 24.6067 32.857L22.8381 31.0884C22.7902 31.0405 22.7333 31.0026 22.6707 30.9767C22.6081 30.9508 22.541 30.9375 22.4733 30.9376H15.6167C15.5201 30.9376 15.4257 30.9089 15.3453 30.8553C15.265 30.8016 15.2023 30.7253 15.1654 30.636C15.1284 30.5467 15.1187 30.4485 15.1376 30.3537C15.1564 30.2589 15.203 30.1719 15.2713 30.1036L16.3567 29.0182C16.402 28.9728 16.4558 28.9367 16.5151 28.9122C16.5744 28.8876 16.638 28.875 16.7021 28.8751H20.8748C21.0996 28.8751 21.3182 28.8017 21.4973 28.666C21.6765 28.5304 21.8065 28.3399 21.8674 28.1236L22.7556 24.9654C22.7745 24.8975 22.8072 24.8342 22.8515 24.7795C22.8958 24.7247 22.9509 24.6796 23.0134 24.647L26.5544 22.8242C26.6341 22.7831 26.7009 22.7207 26.7475 22.6441C26.7942 22.5675 26.8188 22.4795 26.8187 22.3898V20.7785C26.8187 20.6785 26.8493 20.5809 26.9064 20.4988L28.7884 17.7892C28.8448 17.7077 28.9249 17.6456 29.0178 17.6113L31.6514 16.6225C31.7446 16.5876 31.8248 16.5251 31.8815 16.4433C31.9382 16.3616 31.9685 16.2644 31.9685 16.1649V14.6954C31.9685 14.6148 31.9486 14.5355 31.9106 14.4644C31.8726 14.3934 31.8177 14.3328 31.7507 14.2881L29.1107 12.5324C29.0381 12.4846 28.9543 12.4569 28.8676 12.4519C28.7809 12.4469 28.6945 12.4649 28.6169 12.504L25.023 14.3009C24.9408 14.3415 24.8488 14.3581 24.7576 14.3488C24.6664 14.3394 24.5797 14.3045 24.5074 14.2481L22.8033 12.901C22.7451 12.8543 22.6984 12.7948 22.6667 12.7273C22.6351 12.6597 22.6192 12.5858 22.6205 12.5112C22.6217 12.4365 22.64 12.3632 22.6739 12.2967C22.7078 12.2302 22.7565 12.1724 22.8162 12.1276L24.2006 11.1079C24.2633 11.062 24.3141 11.0017 24.3487 10.9321C24.3833 10.8625 24.4008 10.7856 24.3996 10.7079C24.3985 10.6302 24.3788 10.5539 24.3422 10.4853C24.3055 10.4168 24.253 10.358 24.189 10.3139L22.0324 8.80954C21.9578 8.75698 21.8698 8.72645 21.7787 8.72144C21.6875 8.71642 21.5968 8.73713 21.5168 8.78118C20.7369 9.20786 18.4488 10.4711 17.6367 11.0396C13.8793 13.6747 10.8554 17.2239 8.85046 21.3521C8.61585 21.8368 8.32581 22.3305 8.29745 22.8629C8.26909 23.3953 7.85144 24.5838 7.67741 25.0646C7.65394 25.1296 7.64456 25.1989 7.64989 25.2678C7.65523 25.3366 7.67515 25.4036 7.70835 25.4642L12.309 33.9179C12.3504 33.9947 12.4119 34.0589 12.4869 34.1035L17.3273 37.0091C17.3901 37.0465 17.4437 37.0975 17.4841 37.1584C17.5245 37.2194 17.5506 37.2886 17.5607 37.361L18.53 44.3915C18.5395 44.4589 18.5628 44.5236 18.5986 44.5815C18.6343 44.6394 18.6816 44.6893 18.7376 44.728L22.5145 47.3242C22.6239 47.3994 22.7001 47.5139 22.7272 47.6438L24.7304 57.1571C24.7416 57.213 24.7631 57.2663 24.7936 57.3144C24.9818 57.6186 25.732 58.7324 26.6369 58.8974C26.5532 58.9206 26.4784 58.9734 26.3946 58.9979C26.612 59.0362 26.8271 59.0861 27.0391 59.1474C27.2969 59.217 27.5548 59.2763 27.8126 59.3318C28.216 59.4117 28.256 59.4736 28.4494 59.1152C28.7072 58.6357 29.0024 58.4707 29.2228 58.4114C29.3138 58.3904 29.397 58.3442 29.4629 58.2781C29.5288 58.212 29.5747 58.1286 29.5953 58.0376L30.8934 52.0202C30.9207 51.8941 30.9943 51.7828 31.0997 51.7083L36.9005 47.5961C36.9679 47.5485 37.0228 47.4853 37.0608 47.4119C37.0987 47.3386 37.1184 47.2572 37.1183 47.1746V39.4454C37.1191 39.3659 37.1014 39.2873 37.0668 39.2157C37.0321 39.1442 36.9814 39.0816 36.9185 39.0329Z" fill="white"/>
<path d="M33.7737 6.1875C33.7737 6.1875 33.3032 6.21457 33.2078 6.21715C32.5091 6.23777 31.8122 6.2859 31.117 6.36152C28.5826 6.63655 26.1005 7.27248 23.7461 8.25C24.0593 8.46656 23.5205 8.66508 23.5205 8.66508L24.3636 10.3125H28.8753L31.969 11.8594L34.6761 10.3125L33.7737 6.1875ZM45.6627 15.4765L47.7394 13.6718C47.8044 13.6154 47.8543 13.5436 47.8844 13.463C47.9145 13.3823 47.924 13.2955 47.912 13.2102C47.8999 13.125 47.8667 13.0441 47.8154 12.975C47.7641 12.9059 47.6963 12.8508 47.6182 12.8146L45.1935 11.6892C45.0703 11.6318 44.9295 11.6253 44.8015 11.6711C44.6736 11.717 44.5689 11.8115 44.5103 11.9341L43.5113 14.0237C43.4569 14.1379 43.4464 14.2682 43.4819 14.3897C43.5173 14.5111 43.5961 14.6153 43.7034 14.6824L45.0517 15.5255C45.1454 15.5838 45.2553 15.6104 45.3653 15.6016C45.4753 15.5928 45.5795 15.5489 45.6627 15.4765ZM55.3836 18.1332L54.632 16.9731C54.6204 16.955 54.6101 16.937 54.5998 16.9177C54.4645 16.6405 53.3443 14.3782 52.4084 13.5004C51.7059 12.8365 51.5061 13.0273 51.4506 13.1742C51.4189 13.2555 51.3659 13.3267 51.2972 13.3805L47.5796 16.3853C47.488 16.4593 47.3738 16.4998 47.256 16.5H45.3314C45.2637 16.4999 45.1966 16.5132 45.134 16.5391C45.0714 16.565 45.0146 16.603 44.9666 16.6508L43.4198 18.1977C43.3718 18.2456 43.3338 18.3024 43.3078 18.365C43.2819 18.4276 43.2685 18.4947 43.2685 18.5625C43.2685 18.6303 43.2819 18.6974 43.3078 18.76C43.3338 18.8226 43.3718 18.8794 43.4198 18.9273L44.9666 20.4742C45.0146 20.522 45.0714 20.56 45.134 20.5859C45.1966 20.6118 45.2637 20.6251 45.3314 20.625H55.0213C55.0909 20.6251 55.1598 20.611 55.2238 20.5838C55.2879 20.5565 55.3457 20.5165 55.3939 20.4663C55.4421 20.4161 55.4796 20.3566 55.5042 20.2915C55.5288 20.2264 55.5399 20.157 55.537 20.0875L55.4661 18.3923C55.4622 18.3001 55.4337 18.2107 55.3836 18.1332Z" fill="white"/>
<path d="M33 9.28125C38.4875 9.28079 43.8054 11.1831 48.0475 14.664C52.2897 18.1448 55.1936 22.9889 56.2646 28.3709C57.3356 33.7529 56.5073 39.3397 53.9209 44.1794C51.3344 49.0191 47.1499 52.8123 42.0803 54.9126C37.0107 57.013 31.3696 57.2905 26.1183 55.6979C20.867 54.1053 16.3304 50.7412 13.2814 46.1787C10.2324 41.6162 8.85976 36.1377 9.39729 30.6766C9.93482 25.2155 12.3493 20.1098 16.2293 16.2293C18.4264 14.0197 21.0399 12.2679 23.9186 11.0752C26.7973 9.88257 29.884 9.27282 33 9.28125ZM33 4.125C17.0543 4.125 4.125 17.0543 4.125 33C4.125 48.9457 17.0543 61.875 33 61.875C48.9457 61.875 61.875 48.9457 61.875 33C61.875 17.0543 48.9457 4.125 33 4.125Z" fill="white"/>
</svg>
