<svg width="54" height="58" viewBox="0 0 54 58" fill="none" xmlns="http://www.w3.org/2000/svg">
<path d="M9 30.0089H45C47.3869 30.0089 49.6761 29.0607 51.364 27.3729C53.0518 25.685 54 23.3958 54 21.0089C54 18.622 53.0518 16.3328 51.364 14.6449C49.6761 12.9571 47.3869 12.0089 45 12.0089C43.08 12.0089 41.478 10.6259 40.692 8.8739C39.5096 6.23116 37.5876 3.98709 35.1581 2.41248C32.7285 0.837861 29.8952 0 27 0C24.1048 0 21.2715 0.837861 18.8419 2.41248C16.4124 3.98709 14.4904 6.23116 13.308 8.8739C12.522 10.6259 10.92 12.0089 9 12.0089C6.61305 12.0089 4.32387 12.9571 2.63604 14.6449C0.948212 16.3328 0 18.622 0 21.0089C0 23.3958 0.948212 25.685 2.63604 27.3729C4.32387 29.0607 6.61305 30.0089 9 30.0089Z" fill="white"/>
<path fill-rule="evenodd" clip-rule="evenodd" d="M21.7051 36.0088L20.3191 38.3668C17.9581 42.3808 16.7791 44.3878 17.6401 45.8968C18.5041 47.4088 20.8351 47.4088 25.5001 47.4088C26.2081 47.4088 26.5621 47.4088 26.7811 47.6278C27.0001 47.8468 27.0001 48.2008 27.0001 48.9088V54.5008C27.0001 56.7208 27.0001 57.8278 27.5521 57.9808C28.1071 58.1308 28.6681 57.1708 29.7931 55.2598L33.6811 48.6508C36.0421 44.6368 37.2211 42.6298 36.3601 41.1208C35.4961 39.6088 33.1651 39.6088 28.5001 39.6088C27.7921 39.6088 27.4381 39.6088 27.2191 39.3898C27.0001 39.1708 27.0001 38.8168 27.0001 38.1088V36.0088H21.7051Z" fill="white"/>
</svg>
