<svg width="88" height="78" viewBox="0 0 88 78" fill="none" xmlns="http://www.w3.org/2000/svg">
<path d="M68.5996 74.9998L84.2781 57.7918C84.7396 57.286 84.9992 56.5997 84.9997 55.8838V32.2499C84.9997 30.4597 84.3518 28.7428 83.1984 27.4769C82.0451 26.211 80.4808 25.4999 78.8497 25.4999C77.2186 25.4999 75.6543 26.211 74.5009 27.4769C73.3476 28.7428 72.6996 30.4597 72.6996 32.2499V52.4998" stroke="white" stroke-width="6" stroke-linecap="round" stroke-linejoin="round"/>
<path d="M68.6005 56.9998L72.1183 53.1388C72.3038 52.9369 72.4509 52.6964 72.5508 52.4314C72.6508 52.1663 72.7017 51.8821 72.7005 51.5953C72.6976 51.1912 72.5936 50.7957 72.3998 50.4521C72.206 50.1085 71.9299 49.8299 71.6017 49.6468L69.7854 48.6523C68.2466 47.8079 66.5048 47.516 64.8065 47.8181C63.1083 48.1201 61.5396 49.0007 60.3225 50.3353L56.653 54.3628C55.1151 56.0503 54.2508 58.3391 54.2504 60.7258V74.9998M19.4001 74.9998L3.72161 57.7918C3.26013 57.286 3.00057 56.5997 3 55.8838V32.2499C3 30.4597 3.64795 28.7428 4.80131 27.4769C5.95466 26.211 7.51895 25.4999 9.15004 25.4999C10.7811 25.4999 12.3454 26.211 13.4988 27.4769C14.6521 28.7428 15.3001 30.4597 15.3001 32.2499V52.4998" stroke="white" stroke-width="6" stroke-linecap="round" stroke-linejoin="round"/>
<path d="M19.3998 56.9999L15.882 53.1389C15.5147 52.7255 15.3062 52.1728 15.2998 51.5954C15.2998 50.7719 15.7262 50.0204 16.3986 49.6469L18.2149 48.6524C19.7537 47.808 21.4955 47.5161 23.1938 47.8181C24.892 48.1202 26.4607 49.0008 27.6778 50.3354L31.3473 54.3629C32.8852 56.0503 33.7495 58.3391 33.7499 60.7259V74.9999M50.8348 38.9999H37.1653V28.5015H27.5999V13.4985H37.1653V3H50.8348V13.4985H60.4001V28.5015H50.8348V38.9999Z" stroke="white" stroke-width="6" stroke-linecap="round" stroke-linejoin="round"/>
</svg>
