<svg width="74" height="74" viewBox="0 0 74 74" fill="none" xmlns="http://www.w3.org/2000/svg">
<path d="M0 7.03125C0 5.16645 0.74079 3.37802 2.05941 2.05941C3.37802 0.74079 5.16645 0 7.03125 0H23.9062C25.7711 0 27.5595 0.74079 28.8781 2.05941C30.1967 3.37802 30.9375 5.16645 30.9375 7.03125V18.2812C30.9375 18.6542 31.0857 19.0119 31.3494 19.2756C31.6131 19.5393 31.9708 19.6875 32.3438 19.6875H35.1562C37.0211 19.6875 38.8095 20.4283 40.1281 21.7469C41.4467 23.0655 42.1875 24.8539 42.1875 26.7188V28.6509L30.7013 38.3681C29.4531 39.4244 28.4502 40.7401 27.7624 42.2235C27.0746 43.7069 26.7185 45.3224 26.7188 46.9575V59.0625H7.03125C6.10789 59.0625 5.19358 58.8806 4.34051 58.5273C3.48744 58.1739 2.71232 57.656 2.05941 57.0031C1.40649 56.3502 0.888575 55.5751 0.535222 54.722C0.181869 53.8689 0 52.9546 0 52.0312V7.03125ZM11.25 14.0625C11.9959 14.0625 12.7113 13.7662 13.2387 13.2387C13.7662 12.7113 14.0625 11.9959 14.0625 11.25C14.0625 10.5041 13.7662 9.78871 13.2387 9.26126C12.7113 8.73382 11.9959 8.4375 11.25 8.4375C10.5041 8.4375 9.78871 8.73382 9.26126 9.26126C8.73382 9.78871 8.4375 10.5041 8.4375 11.25C8.4375 11.9959 8.73382 12.7113 9.26126 13.2387C9.78871 13.7662 10.5041 14.0625 11.25 14.0625ZM11.25 25.3125C11.9959 25.3125 12.7113 25.0162 13.2387 24.4887C13.7662 23.9613 14.0625 23.2459 14.0625 22.5C14.0625 21.7541 13.7662 21.0387 13.2387 20.5113C12.7113 19.9838 11.9959 19.6875 11.25 19.6875C10.5041 19.6875 9.78871 19.9838 9.26126 20.5113C8.73382 21.0387 8.4375 21.7541 8.4375 22.5C8.4375 23.2459 8.73382 23.9613 9.26126 24.4887C9.78871 25.0162 10.5041 25.3125 11.25 25.3125ZM14.0625 33.75C14.0625 33.0041 13.7662 32.2887 13.2387 31.7613C12.7113 31.2338 11.9959 30.9375 11.25 30.9375C10.5041 30.9375 9.78871 31.2338 9.26126 31.7613C8.73382 32.2887 8.4375 33.0041 8.4375 33.75C8.4375 34.4959 8.73382 35.2113 9.26126 35.7387C9.78871 36.2662 10.5041 36.5625 11.25 36.5625C11.9959 36.5625 12.7113 36.2662 13.2387 35.7387C13.7662 35.2113 14.0625 34.4959 14.0625 33.75ZM19.6875 14.0625C20.4334 14.0625 21.1488 13.7662 21.6762 13.2387C22.2037 12.7113 22.5 11.9959 22.5 11.25C22.5 10.5041 22.2037 9.78871 21.6762 9.26126C21.1488 8.73382 20.4334 8.4375 19.6875 8.4375C18.9416 8.4375 18.2262 8.73382 17.6988 9.26126C17.1713 9.78871 16.875 10.5041 16.875 11.25C16.875 11.9959 17.1713 12.7113 17.6988 13.2387C18.2262 13.7662 18.9416 14.0625 19.6875 14.0625ZM22.5 22.5C22.5 21.7541 22.2037 21.0387 21.6762 20.5113C21.1488 19.9838 20.4334 19.6875 19.6875 19.6875C18.9416 19.6875 18.2262 19.9838 17.6988 20.5113C17.1713 21.0387 16.875 21.7541 16.875 22.5C16.875 23.2459 17.1713 23.9613 17.6988 24.4887C18.2262 25.0162 18.9416 25.3125 19.6875 25.3125C20.4334 25.3125 21.1488 25.0162 21.6762 24.4887C22.2037 23.9613 22.5 23.2459 22.5 22.5ZM21.0938 36.5625C21.8397 36.5625 22.555 36.2662 23.0825 35.7387C23.6099 35.2113 23.9062 34.4959 23.9062 33.75C23.9062 33.0041 23.6099 32.2887 23.0825 31.7613C22.555 31.2338 21.8397 30.9375 21.0938 30.9375C20.3478 30.9375 19.6325 31.2338 19.105 31.7613C18.5776 32.2887 18.2812 33.0041 18.2812 33.75C18.2812 34.4959 18.5776 35.2113 19.105 35.7387C19.6325 36.2662 20.3478 36.5625 21.0938 36.5625ZM56.8012 28.6988C55.5023 27.4994 53.7992 26.8333 52.0312 26.8333C50.2633 26.8333 48.5602 27.4994 47.2613 28.6988L33.1987 41.6812C32.4856 42.3397 31.9166 43.1387 31.5274 44.0279C31.1383 44.9171 30.9374 45.8772 30.9375 46.8478V66.0938C30.9375 67.9586 31.6783 69.747 32.9969 71.0656C34.3155 72.3842 36.1039 73.125 37.9688 73.125H40.7812C42.6461 73.125 44.4345 72.3842 45.7531 71.0656C47.0717 69.747 47.8125 67.9586 47.8125 66.0938V57.6562C47.8125 57.2833 47.9607 56.9256 48.2244 56.6619C48.4881 56.3982 48.8458 56.25 49.2188 56.25H54.8438C55.2167 56.25 55.5744 56.3982 55.8381 56.6619C56.1018 56.9256 56.25 57.2833 56.25 57.6562V66.0938C56.25 67.9586 56.9908 69.747 58.3094 71.0656C59.628 72.3842 61.4164 73.125 63.2812 73.125H66.0938C67.9586 73.125 69.747 72.3842 71.0656 71.0656C72.3842 69.747 73.125 67.9586 73.125 66.0938V46.8478C73.1251 45.8772 72.9242 44.9171 72.5351 44.0279C72.1459 43.1387 71.5769 42.3397 70.8637 41.6812L56.8012 28.6988ZM51.0778 32.8331C51.3375 32.5936 51.6779 32.4606 52.0312 32.4606C52.3846 32.4606 52.725 32.5936 52.9847 32.8331L67.0472 45.8128C67.1901 45.9446 67.3042 46.1047 67.3821 46.2828C67.46 46.461 67.5002 46.6534 67.5 46.8478V66.0938C67.5 66.4667 67.3518 66.8244 67.0881 67.0881C66.8244 67.3518 66.4667 67.5 66.0938 67.5H63.2812C62.9083 67.5 62.5506 67.3518 62.2869 67.0881C62.0232 66.8244 61.875 66.4667 61.875 66.0938V57.6562C61.875 55.7914 61.1342 54.003 59.8156 52.6844C58.497 51.3658 56.7086 50.625 54.8438 50.625H49.2188C47.3539 50.625 45.5655 51.3658 44.2469 52.6844C42.9283 54.003 42.1875 55.7914 42.1875 57.6562V66.0938C42.1875 66.4667 42.0393 66.8244 41.7756 67.0881C41.5119 67.3518 41.1542 67.5 40.7812 67.5H37.9688C37.5958 67.5 37.2381 67.3518 36.9744 67.0881C36.7107 66.8244 36.5625 66.4667 36.5625 66.0938V46.8478C36.562 46.6536 36.6017 46.4613 36.6791 46.2832C36.7566 46.1051 36.8701 45.9449 37.0125 45.8128L51.0778 32.8331Z" fill="white"/>
</svg>
