<svg width="48" height="53" viewBox="0 0 48 53" fill="none" xmlns="http://www.w3.org/2000/svg">
<path d="M9.5904 36.4138C12.9816 36.4138 14.7744 35.1774 16.0824 34.2736C17.2584 33.4626 17.8368 33.1034 19.1832 33.1034C20.5296 33.1034 21.108 33.4626 22.284 34.2736C23.592 35.1774 25.3848 36.4138 28.7784 36.4138C32.1744 36.4138 33.9696 35.1774 35.2824 34.2736C36.4608 33.4626 37.0392 33.1034 38.3904 33.1034C39.7416 33.1034 40.32 33.4626 41.4984 34.2736C42.8088 35.1774 44.604 36.4138 48 36.4138V33.1034C46.6488 33.1034 46.0704 32.7443 44.892 31.9332C43.5816 31.0295 41.7864 29.7931 38.3904 29.7931C34.9944 29.7931 33.2016 31.0295 31.8888 31.9316C30.7104 32.7443 30.1344 33.1034 28.7784 33.1034C27.4296 33.1034 26.8536 32.7443 25.6776 31.9332C24.3696 31.0295 22.5768 29.7931 19.1832 29.7931C15.7896 29.7931 13.9968 31.0295 12.6888 31.9332C11.5128 32.7443 10.9368 33.1034 9.5904 33.1034C8.244 33.1034 7.668 32.7443 6.492 31.9332C5.184 31.0295 3.3912 29.7931 0 29.7931V33.1034C1.3464 33.1034 1.9224 33.4626 3.0984 34.2736C4.4064 35.1774 6.1992 36.4138 9.5904 36.4138ZM9.5904 44.6896C12.9816 44.6896 14.7744 43.4532 16.0824 42.5495C17.2584 41.7385 17.8368 41.3793 19.1832 41.3793C20.5296 41.3793 21.108 41.7385 22.284 42.5495C23.592 43.4532 25.3848 44.6896 28.7784 44.6896C32.1744 44.6896 33.9696 43.4532 35.2824 42.5495C36.4608 41.7385 37.0392 41.3793 38.3904 41.3793C39.7416 41.3793 40.32 41.7385 41.4984 42.5495C42.8088 43.4532 44.604 44.6896 48 44.6896V41.3793C46.6488 41.3793 46.0704 41.0201 44.892 40.2091C43.5816 39.3054 41.7864 38.069 38.3904 38.069C34.9944 38.069 33.2016 39.3054 31.8888 40.2074C30.7104 41.0201 30.1344 41.3793 28.7784 41.3793C27.4296 41.3793 26.8536 41.0201 25.6776 40.2091C24.3696 39.3054 22.5768 38.069 19.1832 38.069C15.7896 38.069 13.9968 39.3054 12.6888 40.2091C11.5128 41.0201 10.9368 41.3793 9.5904 41.3793C8.244 41.3793 7.668 41.0201 6.492 40.2091C5.184 39.3054 3.3912 38.069 0 38.069V41.3793C1.3464 41.3793 1.9224 41.7385 3.0984 42.5495C4.4064 43.4532 6.1992 44.6896 9.5904 44.6896ZM9.5904 52.9655C12.9816 52.9655 14.7744 51.7291 16.0824 50.8254C17.2584 50.0143 17.8368 49.6552 19.1832 49.6552C20.5296 49.6552 21.108 50.0143 22.284 50.8254C23.592 51.7291 25.3848 52.9655 28.7784 52.9655C32.1744 52.9655 33.9696 51.7291 35.2824 50.8254C36.4608 50.0143 37.0392 49.6552 38.3904 49.6552C39.7416 49.6552 40.32 50.0143 41.4984 50.8254C42.8088 51.7291 44.604 52.9655 48 52.9655V49.6552C46.6488 49.6552 46.0704 49.296 44.892 48.485C43.5816 47.5812 41.7864 46.3448 38.3904 46.3448C34.9944 46.3448 33.2016 47.5812 31.8888 48.4833C30.7104 49.296 30.1344 49.6552 28.7784 49.6552C27.4296 49.6552 26.8536 49.296 25.6776 48.485C24.3696 47.5812 22.5768 46.3448 19.1832 46.3448C15.7896 46.3448 13.9968 47.5812 12.6888 48.485C11.5128 49.296 10.9368 49.6552 9.5904 49.6552C8.244 49.6552 7.668 49.296 6.492 48.485C5.184 47.5812 3.3912 46.3448 0 46.3448V49.6552C1.3464 49.6552 1.9224 50.0143 3.0984 50.8254C4.4064 51.7291 6.1992 52.9655 9.5904 52.9655Z" fill="white"/>
<path d="M14.069 23.1724C12.5326 23.1724 11.0591 22.6102 9.97264 21.6095C8.88622 20.6088 8.27588 19.2516 8.27588 17.8364C8.27588 14.279 14.069 8.27588 14.069 8.27588C14.069 8.27588 19.8621 14.279 19.8621 17.8364C19.8621 19.2516 19.2517 20.6088 18.1653 21.6095C17.0789 22.6102 15.6054 23.1724 14.069 23.1724Z" fill="white"/>
<path d="M24.0001 14.8966C22.4637 14.8966 20.9902 14.3344 19.9038 13.3337C18.8174 12.3329 18.207 10.9757 18.207 9.56047C18.207 6.00309 24.0001 0 24.0001 0C24.0001 0 29.7932 6.00309 29.7932 9.56047C29.7932 10.9757 29.1829 12.3329 28.0965 13.3337C27.0101 14.3344 25.5366 14.8966 24.0001 14.8966Z" fill="white"/>
<path d="M28.9655 29.7932C27.429 29.7932 25.9555 29.231 24.8691 28.2303C23.7827 27.2295 23.1724 25.8723 23.1724 24.4571C23.1724 20.8997 28.9655 14.8966 28.9655 14.8966C28.9655 14.8966 34.7586 20.8997 34.7586 24.4571C34.7586 25.8723 34.1482 27.2295 33.0618 28.2303C31.9754 29.231 30.5019 29.7932 28.9655 29.7932Z" fill="white"/>
</svg>
