<svg width="74" height="78" viewBox="0 0 74 78" fill="none" xmlns="http://www.w3.org/2000/svg">
<path d="M18.3403 55.3334L33.667 63.6934V73.6667H8.00033C3.93033 73.6667 0.666992 70.4034 0.666992 66.3334V7.66671C0.666992 5.72179 1.43961 3.85652 2.81488 2.48126C4.19014 1.10599 6.0554 0.333374 8.00033 0.333374H11.667V26L20.8337 20.5L30.0003 26V0.333374H52.0003C53.9452 0.333374 55.8105 1.10599 57.1858 2.48126C58.561 3.85652 59.3337 5.72179 59.3337 7.66671V38.98L53.8337 35.9734L18.3403 55.3334ZM74.0003 55.3334L53.8337 44.3334L33.667 55.3334L53.8337 66.3334L74.0003 55.3334ZM41.0003 62.9967V70.33L53.8337 77.3334L66.667 70.33V62.9967L53.8337 70L41.0003 62.9967Z" fill="white"/>
</svg>
