<svg width="70" height="56" viewBox="0 0 70 56" fill="none" xmlns="http://www.w3.org/2000/svg">
<path d="M0.833008 55.3334V21.1667C0.833008 19.2876 1.50267 17.6795 2.84201 16.3424C4.18134 15.0054 5.78945 14.3357 7.66634 14.3334H17.9163V7.50008C17.9163 5.62091 18.586 4.0128 19.9253 2.67575C21.2647 1.33869 22.8728 0.669026 24.7497 0.666748H45.2497C47.1288 0.666748 48.7381 1.33641 50.0774 2.67575C51.4168 4.01508 52.0853 5.62319 52.083 7.50008V14.3334H62.333C64.2122 14.3334 65.8214 15.0031 67.1608 16.3424C68.5001 17.6817 69.1686 19.2899 69.1663 21.1667V55.3334H0.833008ZM21.333 38.2501V41.6667H14.4997V38.2501H7.66634V48.5001H62.333V38.2501H55.4997V41.6667H48.6663V38.2501H21.333ZM7.66634 21.1667V31.4167H14.4997V28.0001H21.333V31.4167H48.6663V28.0001H55.4997V31.4167H62.333V21.1667H7.66634ZM24.7497 14.3334H45.2497V7.50008H24.7497V14.3334Z" fill="white"/>
</svg>
