<svg width="76" height="74" viewBox="0 0 76 74" fill="none" xmlns="http://www.w3.org/2000/svg">
<path fill-rule="evenodd" clip-rule="evenodd" d="M45.3745 13.1914C45.3745 16.2151 42.8585 18.6663 39.7548 18.6663C36.6512 18.6663 34.1351 16.2151 34.1351 13.1914C34.1351 10.1676 36.6512 7.7164 39.7548 7.7164C42.8585 7.7164 45.3745 10.1676 45.3745 13.1914ZM52.8675 13.1914C52.8675 20.2467 46.9968 25.9662 39.7548 25.9662C32.5128 25.9662 26.6423 20.2467 26.6423 13.1914C26.6423 6.13584 32.513 0.416382 39.7548 0.416382C46.9968 0.416382 52.8675 6.13601 52.8675 13.1914ZM13.5298 25.9667C14.5644 25.9667 15.4029 25.1496 15.4029 24.1417C15.4029 23.1337 14.5644 22.3166 13.5298 22.3166C12.4953 22.3166 11.6565 23.1337 11.6565 24.1417C11.6565 25.1496 12.4953 25.9667 13.5298 25.9667ZM13.5298 33.2665C18.7026 33.2665 22.8959 29.1812 22.8959 24.1417C22.8959 19.1021 18.7026 15.0168 13.5298 15.0168C8.35691 15.0168 4.16357 19.1021 4.16357 24.1417C4.16357 29.1812 8.35691 33.2665 13.5298 33.2665ZM44.1842 36.916H34.1348C29.9966 36.916 26.6418 40.1843 26.6418 44.216V47.7735L26.6421 47.832L26.6423 47.8666V55.1659H34.1351V55.1661C34.1351 57.7256 34.5857 60.1827 35.4141 62.4659H26.6423V62.4664H0.416992V47.8666C0.416992 41.819 5.44907 36.9166 11.6564 36.9166H15.4029C17.2446 36.9166 18.9829 37.3481 20.517 38.1131C22.8891 33.0975 28.0947 29.6161 34.1348 29.6161H45.3741C49.1945 29.6161 52.681 31.0088 55.3277 33.3014C51.3489 33.5172 47.5016 34.7651 44.1842 36.916ZM19.149 47.8127C19.1193 45.8217 17.4536 44.2165 15.4029 44.2165H11.6564C9.58727 44.2165 7.90997 45.8506 7.90997 47.8666V55.1664H19.149V47.8127ZM61.7959 36.9166H51.3891V40.8227C49.58 41.4464 47.9045 42.39 46.447 43.6062L42.9717 41.6513L37.7682 50.4318L41.2409 52.3851C41.0673 53.3025 40.9802 54.2334 40.9806 55.1662C40.9806 56.1162 41.07 57.0457 41.241 57.9474L37.7681 59.9007L42.9715 68.6812L46.4472 66.7263C47.9047 67.9424 49.5801 68.886 51.3891 69.5096V73.4164H61.7959V69.5084C63.6041 68.8846 65.2786 67.9412 66.7354 66.7254L70.2135 68.6817L75.417 59.9012L71.9409 57.946C72.1143 57.0291 72.2014 56.0986 72.2009 55.1662C72.2009 54.2169 72.1117 53.2877 71.9409 52.3865L75.4168 50.4314L70.2133 41.6508L66.7356 43.6071C65.2788 42.3912 63.6042 41.4477 61.7959 40.8239V36.9166ZM56.5909 61.25C60.0392 61.25 62.8349 58.5263 62.8349 55.1666C62.8349 51.8068 60.0392 49.0832 56.5909 49.0832C53.1423 49.0832 50.3467 51.8068 50.3467 55.1666C50.3467 58.5263 53.1423 61.25 56.5909 61.25Z" fill="white"/>
</svg>
