<svg width="59" height="68" viewBox="0 0 59 68" fill="none" xmlns="http://www.w3.org/2000/svg">
<path d="M58.5 6.75H54V3.15113C54 1.4175 52.6973 0 51.1087 0H36.6368C35.0528 0 33.75 1.4175 33.75 3.15113V6.75H6.68363L0 20.25H4.64062V29.25H3.88912L0.140625 33.75L3.88912 38.25H4.71038V40.6665C4.71038 41.2774 5.18175 41.7713 5.76562 41.7713C7.5105 41.7713 8.93025 43.2607 8.93025 45.0911C8.93025 46.9215 7.5105 48.411 5.76562 48.411C4.02075 48.411 2.601 46.9215 2.601 45.0911C2.601 44.4803 2.1285 43.9864 1.54575 43.9864C0.961875 43.9864 0.4905 44.4803 0.4905 45.0911C0.49275 48.1444 2.8575 50.625 5.76562 50.625C8.67375 50.625 11.0396 48.1444 11.0396 45.0923C11.0396 42.4204 9.225 40.1839 6.82087 39.672V38.25H7.641L11.3906 33.75L7.641 29.25H6.89062V20.25H33.75V28.3489C33.75 29.8429 34.7186 31.095 36 31.4167V67.5H38.9531V60.75L48.7969 64.125L38.9531 67.5H51.75V31.4156C53.0325 31.095 54 29.8429 54 28.3489V20.25H58.5V16.875H56.1623L58.5 12.4369V6.75ZM5.22337 16.875L7.85138 11.4761L10.6931 16.875H5.22337ZM10.1981 10.125H14.8703L12.5347 14.5631L10.1981 10.125ZM14.3764 16.875L16.713 12.4369L19.0508 16.875H14.3764ZM18.5557 10.125H23.2279L20.8913 14.5631L18.5557 10.125ZM22.7351 16.875L25.0706 12.4369L27.4061 16.875H22.7351ZM26.9134 10.125H31.5855L29.25 14.5631L26.9134 10.125ZM33.75 16.875H31.0916L33.4271 12.4369L33.75 13.05V16.875ZM48.7969 60.75L38.9531 57.375L48.7969 54V60.75ZM38.9531 54V47.25L48.7969 50.6273L38.9531 54ZM48.7969 47.25L38.9531 43.875L48.7969 40.5V47.25ZM38.9531 40.5V33.7523L48.7969 37.125L38.9531 40.5ZM48.7969 33.7523L42.2325 31.5H48.7969V33.7523ZM50.4844 14.904C50.4844 15.9874 49.7239 16.875 48.7969 16.875H38.6696C37.7426 16.875 36.9844 15.9874 36.9844 14.904V5.35275C36.9844 4.26262 37.7426 3.375 38.6696 3.375H48.7969C49.7239 3.375 50.4844 4.26262 50.4844 5.35275V14.904ZM54.3206 14.5631L54 13.9534V10.125H56.6561L54.3206 14.5631Z" fill="white"/>
</svg>
