<svg width="79" height="54" viewBox="0 0 79 54" fill="none" xmlns="http://www.w3.org/2000/svg">
<path d="M43.5 27C42.3065 27 41.1619 26.5259 40.318 25.682C39.4741 24.8381 39 23.6935 39 22.5C39 21.3065 39.4741 20.1619 40.318 19.318C41.1619 18.4741 42.3065 18 43.5 18C44.6935 18 45.8381 18.4741 46.682 19.318C47.5259 20.1619 48 21.3065 48 22.5C48 23.6935 47.5259 24.8381 46.682 25.682C45.8381 26.5259 44.6935 27 43.5 27ZM34.5 15C33.3065 15 32.1619 14.5259 31.318 13.682C30.4741 12.8381 30 11.6935 30 10.5C30 9.30653 30.4741 8.16193 31.318 7.31802C32.1619 6.47411 33.3065 6 34.5 6C35.6935 6 36.8381 6.47411 37.682 7.31802C38.5259 8.16193 39 9.30653 39 10.5C39 11.6935 38.5259 12.8381 37.682 13.682C36.8381 14.5259 35.6935 15 34.5 15ZM19.5 15C18.3065 15 17.1619 14.5259 16.318 13.682C15.4741 12.8381 15 11.6935 15 10.5C15 9.30653 15.4741 8.16193 16.318 7.31802C17.1619 6.47411 18.3065 6 19.5 6C20.6935 6 21.8381 6.47411 22.682 7.31802C23.5259 8.16193 24 9.30653 24 10.5C24 11.6935 23.5259 12.8381 22.682 13.682C21.8381 14.5259 20.6935 15 19.5 15ZM10.5 27C9.30653 27 8.16193 26.5259 7.31802 25.682C6.47411 24.8381 6 23.6935 6 22.5C6 21.3065 6.47411 20.1619 7.31802 19.318C8.16193 18.4741 9.30653 18 10.5 18C11.6935 18 12.8381 18.4741 13.682 19.318C14.5259 20.1619 15 21.3065 15 22.5C15 23.6935 14.5259 24.8381 13.682 25.682C12.8381 26.5259 11.6935 27 10.5 27ZM27 0C19.8392 0 12.9716 2.84463 7.90812 7.90812C2.84463 12.9716 0 19.8392 0 27C0 34.1608 2.84463 41.0284 7.90812 46.0919C12.9716 51.1554 19.8392 54 27 54C28.1935 54 29.3381 53.5259 30.182 52.682C31.0259 51.8381 31.5 50.6935 31.5 49.5C31.5 48.33 31.05 47.28 30.33 46.5C29.64 45.69 29.19 44.64 29.19 43.5C29.19 42.3065 29.6641 41.1619 30.508 40.318C31.3519 39.4741 32.4965 39 33.69 39H39C42.9782 39 46.7936 37.4196 49.6066 34.6066C52.4196 31.7936 54 27.9782 54 24C54 10.74 41.91 0 27 0Z" fill="white"/>
<path d="M58.6707 42.837C58.5369 42.8375 58.4039 42.8167 58.2767 42.7753C58.0479 42.7013 57.8446 42.5645 57.69 42.3804C57.5353 42.1963 57.4356 41.9724 57.4022 41.7343C57.23 40.5331 55.8047 39.135 54.4698 38.8635C54.2493 38.8179 54.0448 38.7151 53.8767 38.5653C53.7087 38.4155 53.5831 38.2241 53.5125 38.0104C53.442 37.7966 53.429 37.568 53.4749 37.3477C53.5208 37.1273 53.6239 36.9229 53.7739 36.7551L70.6776 17.9287C70.6928 17.9111 70.7088 17.8943 70.7248 17.8782C71.574 17.0314 72.7243 16.5559 73.9235 16.5559C75.1228 16.5559 76.2731 17.0314 77.1223 17.8782C77.9687 18.7253 78.4449 19.8733 78.4466 21.0707C78.4482 22.2682 77.9752 23.4175 77.1311 24.2669L59.594 42.4446C59.4744 42.5688 59.331 42.6675 59.1723 42.7349C59.0137 42.8023 58.843 42.8371 58.6707 42.837ZM49.601 52.4464C47.0273 52.4464 44.3599 51.0938 42.8064 49.003C42.6648 48.8124 42.579 48.5861 42.5585 48.3495C42.538 48.113 42.5837 47.8753 42.6904 47.6632C42.7971 47.4511 42.9607 47.2728 43.1629 47.1482C43.3651 47.0237 43.5979 46.9577 43.8354 46.9578C44.263 46.9578 45.4369 46.5678 45.4369 45.3106C45.4369 42.1819 47.9514 39.6363 51.0424 39.6363C54.1334 39.6363 56.6479 42.1819 56.6479 45.3106C56.6479 49.244 53.4864 52.4464 49.601 52.4464Z" fill="white"/>
</svg>
