<svg width="71" height="89" viewBox="0 0 71 89" fill="none" xmlns="http://www.w3.org/2000/svg">
<path d="M46.2592 73.4543C44.3414 74.6201 42.1387 75.2332 39.8943 75.226C38.014 75.2111 36.1551 74.8266 34.4232 74.0942C33.0885 75.9785 32.3741 78.232 32.3796 80.5411V86.4381C32.3801 86.6574 32.3354 86.8745 32.2485 87.0758C32.1616 87.2772 32.0342 87.4585 31.8742 87.6085C31.7142 87.7585 31.5251 87.874 31.3186 87.9479C31.1122 88.0218 30.8927 88.0524 30.6739 88.0379C30.2627 88.0021 29.8802 87.8121 29.6032 87.5062C29.3261 87.2002 29.175 86.8008 29.1801 86.3881V83.9006L21.4574 76.1778C20.3094 76.6061 19.0953 76.8301 17.87 76.8397C16.1832 76.8441 14.528 76.3826 13.0868 75.506C8.72954 72.8584 6.38393 66.7654 6.83785 59.2007C6.86071 58.8093 7.02648 58.44 7.30368 58.1628C7.58089 57.8856 7.95024 57.7198 8.3416 57.6969C15.9063 57.251 21.9993 59.5886 24.6389 63.9459C25.6759 65.6538 26.1287 67.6529 25.9287 69.6409C25.9162 69.795 25.8594 69.9421 25.7652 70.0645C25.6709 70.187 25.5432 70.2795 25.3974 70.3309C25.2517 70.3823 25.0942 70.3904 24.944 70.3542C24.7937 70.318 24.6572 70.239 24.5509 70.1269L20.7115 66.1075C20.4091 65.8202 20.0063 65.6624 19.5892 65.6677C19.172 65.673 18.7735 65.8411 18.4785 66.1361C18.1835 66.4311 18.0154 66.8297 18.0101 67.2468C18.0047 67.664 18.1626 68.0667 18.4499 68.3692L29.2241 79.4173C29.2361 79.2613 29.2501 79.1054 29.2661 78.9514C29.6159 75.9854 30.9247 73.2147 32.9935 71.0607L43.1098 60.3705C43.4099 60.0706 43.5787 59.6637 43.5789 59.2394C43.5791 58.8151 43.4107 58.4081 43.1108 58.1079C42.8109 57.8077 42.404 57.639 41.9797 57.6388C41.5553 57.6386 41.1483 57.807 40.8482 58.1069L31.0498 68.4691C30.9517 68.573 30.8276 68.6487 30.6904 68.6884C30.5531 68.7281 30.4077 68.7303 30.2693 68.6948C30.131 68.6593 30.0046 68.5874 29.9034 68.4865C29.8023 68.3856 29.73 68.2595 29.694 68.1212C28.7462 64.6258 29.1641 61.1464 30.9738 58.1589C34.5452 52.2639 42.8558 49.1084 53.2061 49.7163C53.5974 49.7391 53.9668 49.9049 54.244 50.1821C54.5212 50.4593 54.687 50.8287 54.7098 51.22C55.3097 61.5723 52.1543 69.8829 46.2592 73.4543Z" fill="white"/>
<path d="M44.1491 23.5051C42.6218 20.9652 42.2317 17.8036 43.0184 14.3418L43.3271 12.948C41.4091 13.7536 39.5143 14.6735 37.6645 15.6974C34.5601 16.0217 30.1401 16.8492 25.7173 18.924L22.9855 20.1765L26.9513 23.4321C22.9152 27.1448 20.0082 31.508 18.1144 34.4462C17.4358 34.4947 16.7365 34.5639 16.0165 34.6536C10.4617 35.3469 5.60946 38.006 5.40652 38.1188L3.21794 39.3394L4.28972 40.4554C4.40222 40.5701 6.8393 43.0005 10.8652 43.4797C9.39716 47.2594 10.4009 50.548 10.446 50.7058L10.941 52.1984L13.0334 50.8177C13.2283 50.6916 17.8558 47.6581 21.0771 43.0796C21.4872 42.4973 21.8711 41.9214 22.2287 41.3518C25.7194 41.0625 30.94 40.5489 36.1192 38.7269L37.1444 43.7514L39.5351 41.9309C43.423 39.0181 46.2176 35.5116 47.9593 32.9236C49.7572 31.7561 51.4837 30.4988 53.1187 29.166L51.7144 28.8083C48.2859 27.8772 45.6756 26.0474 44.1491 23.5051Z" fill="white"/>
<path d="M60.9102 10.3173C59.8663 10.0438 58.0808 9.74736 55.5117 9.88873C52.8448 10.0484 50.0231 10.6022 47.1719 11.5256L46.7232 13.575C46.0544 16.5213 46.3853 19.2125 47.6823 21.3761C48.9794 23.5397 51.1965 25.0988 54.1092 25.8955L56.1949 26.4263C58.3277 24.3659 60.1271 22.1603 61.5145 19.906C63.9166 15.959 64.1822 12.6581 63.6592 11.7875C63.1641 10.963 61.6996 10.5275 60.9102 10.3173ZM53.0505 18.159C52.7008 18.369 52.3213 18.5115 51.9598 18.5684C51.5983 18.6252 51.2711 18.594 51.0197 18.4786C50.7683 18.3631 50.6039 18.1687 50.5473 17.9199C50.4906 17.671 50.5444 17.3789 50.7016 17.0806C50.8589 16.7822 51.1126 16.4909 51.4308 16.2436C51.7489 15.9962 52.1172 15.8039 52.489 15.691C52.8608 15.5781 53.2194 15.5496 53.5195 15.6091C53.8197 15.6686 54.0478 15.8135 54.1751 16.0255C54.3458 16.3097 54.3232 16.6941 54.1123 17.0942C53.9014 17.4943 53.5195 17.8773 53.0505 18.159Z" fill="white"/>
</svg>
