<svg width="82" height="66" viewBox="0 0 82 66" fill="none" xmlns="http://www.w3.org/2000/svg">
<path d="M4.33317 58.6667V18.3333H0.666504V11H11.6665V3.66667C11.6665 2.69421 12.0528 1.76158 12.7404 1.07394C13.4281 0.386308 14.3607 0 15.3332 0H66.6665C67.639 0 68.5716 0.386308 69.2592 1.07394C69.9469 1.76158 70.3332 2.69421 70.3332 3.66667V11H81.3332V18.3333H77.6665V58.6667H81.3332V66H0.666504V58.6667H4.33317ZM44.6665 58.6667V33H37.3332V58.6667H44.6665ZM26.3332 58.6667V33H18.9998V58.6667H26.3332ZM62.9998 58.6667V33H55.6665V58.6667H62.9998ZM18.9998 7.33333V11H62.9998V7.33333H18.9998Z" fill="white"/>
</svg>
