<svg width="69" height="69" viewBox="0 0 69 69" fill="none" xmlns="http://www.w3.org/2000/svg">
<path d="M53.4375 68.875H58.625C61.25 68.875 63.4062 66.8438 63.7188 64.2812L68.875 12.7813H53.25V0.125H47.0938V12.7813H31.5625L32.5 20.0938C37.8438 21.5625 42.8438 24.2187 45.8438 27.1562C50.3438 31.5937 53.4375 36.1875 53.4375 43.6875V68.875ZM0.125 65.75V62.625H47.0938V65.75C47.0938 67.4375 45.6875 68.875 43.875 68.875H3.25C1.53125 68.875 0.125 67.4375 0.125 65.75ZM47.0938 43.875C47.0938 18.875 0.125 18.875 0.125 43.875H47.0938ZM0.125 50.125H47V56.375H0.125V50.125Z" fill="white"/>
</svg>
