<svg width="64" height="59" viewBox="0 0 64 59" fill="none" xmlns="http://www.w3.org/2000/svg">
<path d="M60.9 11.46L40 25.18V13.6C40.0013 13.2215 39.8952 12.8505 39.694 12.5299C39.4927 12.2094 39.2047 11.9525 38.8633 11.7891C38.5219 11.6257 38.1412 11.5626 37.7653 11.607C37.3895 11.6514 37.0339 11.8016 36.74 12.04L24.14 22.58H16V2.7L4 0V22.58H0V56.58C0 57.1104 0.210714 57.6191 0.585786 57.9942C0.960859 58.3693 1.46957 58.58 2 58.58H62C62.5304 58.58 63.0391 58.3693 63.4142 57.9942C63.7893 57.6191 64 57.1104 64 56.58V13.12C63.9981 12.7598 63.8991 12.4069 63.7132 12.0983C63.5274 11.7898 63.2617 11.5372 62.9442 11.3672C62.6266 11.1972 62.2691 11.116 61.9093 11.1324C61.5495 11.1487 61.2008 11.2619 60.9 11.46ZM24 52.58H8V48.58H24V52.58ZM24 44.58H8V40.58H24V44.58ZM24 36.58H8V32.58H24V36.58ZM40 52.58H36V46.58H40V52.58ZM40 40.58H36V34.58H40V40.58ZM48 52.58H44V46.58H48V52.58ZM48 40.58H44V34.58H48V40.58ZM56 52.58H52V46.58H56V52.58ZM56 40.58H52V34.58H56V40.58Z" fill="white"/>
</svg>
