<svg width="66" height="66" viewBox="0 0 66 66" fill="none" xmlns="http://www.w3.org/2000/svg">
<path d="M17.3333 34.1459V19.625C17.3333 18.2014 17.8322 16.9919 18.8298 15.9965C19.8275 15.0012 21.037 14.5023 22.4583 14.5C23.8797 14.4978 25.0903 14.9966 26.0903 15.9965C27.0902 16.9965 27.5879 18.206 27.5833 19.625V34.1459C27.5833 35.5695 27.0856 36.7801 26.0903 37.7778C25.0949 38.7755 23.8842 39.2732 22.4583 39.2709C21.0324 39.2686 19.8229 38.7709 18.8298 37.7778C17.8367 36.7847 17.3379 35.574 17.3333 34.1459ZM34.4167 33.3771V5.95838C34.4167 4.53477 34.9155 3.32527 35.9132 2.32988C36.9108 1.33449 38.1203 0.83566 39.5417 0.833382C40.963 0.831104 42.1736 1.32994 43.1736 2.32988C44.1735 3.32983 44.6712 4.53933 44.6667 5.95838V33.3771C44.6667 35.0855 44.1405 36.3667 43.0882 37.2209C42.0358 38.075 40.8537 38.5021 39.5417 38.5021C38.2297 38.5021 37.0486 38.075 35.9986 37.2209C34.9485 36.3667 34.4212 35.0855 34.4167 33.3771ZM0.25 45.1646V33.2917C0.25 31.8681 0.748833 30.6586 1.7465 29.6632C2.74417 28.6678 3.95367 28.169 5.375 28.1667C6.79633 28.1644 8.00697 28.6633 9.00692 29.6632C10.0069 30.6632 10.5046 31.8727 10.5 33.2917V45.1646C10.5 46.873 9.97383 48.1542 8.9215 49.0084C7.86917 49.8625 6.687 50.2896 5.375 50.2896C4.063 50.2896 2.88197 49.8625 1.83192 49.0084C0.781861 48.1542 0.254556 46.873 0.25 45.1646ZM8.45 65.9209C6.96944 65.9209 5.92964 65.2239 5.33058 63.8299C4.73153 62.4359 4.97411 61.1968 6.05833 60.1125L20.0667 46.1042C20.6931 45.4778 21.4481 45.1362 22.3319 45.0792C23.2157 45.0223 23.9981 45.307 24.6792 45.9334L34.4167 54.3042L53.55 35.1709H51.5C50.5319 35.1709 49.7211 34.8429 49.0673 34.1869C48.4136 33.5309 48.0856 32.72 48.0833 31.7542C48.0811 30.7884 48.4091 29.9775 49.0673 29.3215C49.7256 28.6655 50.5365 28.3375 51.5 28.3375H61.75C62.7181 28.3375 63.5301 28.6655 64.1861 29.3215C64.8421 29.9775 65.1689 30.7884 65.1667 31.7542V42.0042C65.1667 42.9723 64.8387 43.7843 64.1827 44.4403C63.5267 45.0963 62.7158 45.4232 61.75 45.4209C60.7842 45.4186 59.9733 45.0906 59.3173 44.4369C58.6613 43.7832 58.3333 42.9723 58.3333 42.0042V39.9542L36.9792 61.3084C36.3528 61.9348 35.5977 62.2764 34.7139 62.3334C33.8301 62.3903 33.0477 62.1056 32.3667 61.4792L22.6292 53.1084L10.8417 64.8959C10.5569 65.1806 10.2016 65.4232 9.77567 65.6236C9.34972 65.8241 8.90783 65.9231 8.45 65.9209Z" fill="white"/>
<path d="M59.1833 11.2167C56.535 10.5283 55.6833 9.81667 55.6833 8.70833C55.6833 7.43667 56.8617 6.55 58.8333 6.55C60.49 6.55 61.3183 7.18 61.6217 8.18333C61.7617 8.65 62.1467 9 62.6367 9H62.9867C63.7567 9 64.305 8.24167 64.0367 7.51833C63.5467 6.14167 62.4033 4.99833 60.5833 4.555V3.75C60.5833 2.78167 59.8017 2 58.8333 2C57.865 2 57.0833 2.78167 57.0833 3.75V4.52C54.82 5.01 53 6.48 53 8.73167C53 11.4267 55.2283 12.7683 58.4833 13.55C61.4 14.25 61.9833 15.2767 61.9833 16.3617C61.9833 17.1667 61.4117 18.45 58.8333 18.45C56.9083 18.45 55.9167 17.7617 55.5317 16.7817C55.3567 16.3267 54.96 16 54.4817 16H54.155C53.3733 16 52.825 16.7933 53.1167 17.5167C53.7817 19.1383 55.3333 20.095 57.0833 20.4683V21.25C57.0833 22.2183 57.865 23 58.8333 23C59.8017 23 60.5833 22.2183 60.5833 21.25V20.4917C62.8583 20.06 64.6667 18.7417 64.6667 16.35C64.6667 13.0367 61.8317 11.905 59.1833 11.2167Z" fill="white"/>
</svg>
