<svg width="60" height="57" viewBox="0 0 60 57" fill="none" xmlns="http://www.w3.org/2000/svg">
<path d="M53.879 37.3451C53.909 36.8951 53.999 36.4452 53.999 35.9953V37.4951L53.879 37.3451ZM23.9995 35.9953C23.9995 38.125 24.4495 40.1647 25.2595 41.9945H8.99983V44.9941C8.99983 46.6439 7.64986 47.9937 5.99989 47.9937H2.99994C1.34997 47.9937 0 46.6439 0 44.9941V20.9972L6.23988 2.99961C6.83987 1.25983 8.51984 0 10.4998 0H43.4992C45.4791 0 47.1591 1.25983 47.7591 2.99961L53.999 20.9972V35.9953C53.999 27.7164 47.2791 20.9972 38.9993 20.9972C30.7194 20.9972 23.9995 27.7164 23.9995 35.9953ZM14.9997 28.4963C14.9997 26.0066 12.9898 23.9968 10.4998 23.9968C8.00985 23.9968 5.99989 26.0066 5.99989 28.4963C5.99989 30.9859 8.00985 32.9957 10.4998 32.9957C12.9898 32.9957 14.9997 30.9859 14.9997 28.4963ZM47.9991 17.9976L43.4992 4.49941H10.4998L5.99989 17.9976H47.9991ZM59.6089 51.5632L47.2791 39.2348C48.5091 36.1152 47.8191 32.4557 45.2392 29.9061C42.5392 27.1764 38.4893 26.6365 35.2193 28.1363L41.0392 33.9555L36.9893 38.035L31.0194 32.1858C29.3994 35.4553 30.1494 39.5048 32.7894 42.2344C33.9808 43.4497 35.5015 44.2903 37.1645 44.6527C38.8274 45.015 40.5601 44.8835 42.1492 44.2742L54.479 56.5726C55.019 57.1425 55.829 57.1425 56.3689 56.5726L59.4889 53.483C60.1489 52.943 60.1489 51.9832 59.6089 51.5632Z" fill="white"/>
</svg>
