<svg width="67" height="62" viewBox="0 0 67 62" fill="none" xmlns="http://www.w3.org/2000/svg">
<path d="M66.8088 55.979L53.7028 42.6352C54.9814 39.3806 54.3421 35.1496 51.4652 32.5459C48.5882 29.6168 44.4327 28.9659 40.9164 30.5932L46.9899 36.7769L42.5147 41.3333L36.1215 34.8241C34.5232 38.4042 35.1625 42.6352 38.0395 45.8898C40.9164 48.8189 44.7523 49.4698 47.9489 48.168L61.0549 61.5118C61.6943 62.1627 62.6532 62.1627 62.9729 61.5118L66.1695 58.2572C67.1285 57.2808 67.1285 56.3045 66.8088 55.979ZM25.5728 26.0367C32.6053 26.0367 38.3591 20.1785 38.3591 13.0184C38.3591 5.85827 32.6053 0 25.5728 0C18.5402 0 12.7864 5.85827 12.7864 13.0184C12.7864 20.1785 18.5402 26.0367 25.5728 26.0367ZM25.5728 6.50919C29.089 6.50919 31.9659 9.43832 31.9659 13.0184C31.9659 16.5984 29.089 19.5276 25.5728 19.5276C22.0565 19.5276 19.1796 16.5984 19.1796 13.0184C19.1796 9.43832 22.0565 6.50919 25.5728 6.50919ZM35.1625 52.0735H0V42.3097C0 33.5223 16.9419 29.2913 25.5728 29.2913C27.171 29.2913 29.4087 29.6168 31.6463 29.9423C30.3676 31.5696 29.7283 33.5223 29.089 35.8005C27.8104 35.8005 26.8514 35.4751 25.5728 35.4751C15.983 35.4751 6.07353 40.357 6.07353 42.3097V45.8898H30.3676C31.3266 48.4934 33.2446 50.4462 35.1625 52.0735Z" fill="white"/>
</svg>
